<?xml version="1.0" standalone="no"?>
<!DOCTYPE svg PUBLIC "-//W3C//DTD SVG 20010904//EN"
 "http://www.w3.org/TR/2001/REC-SVG-20010904/DTD/svg10.dtd">
<svg version="1.0" xmlns="http://www.w3.org/2000/svg"
 width="450.000000pt" height="450.000000pt" viewBox="0 0 450.000000 450.000000"
 preserveAspectRatio="xMidYMid meet">

<g transform="translate(0.000000,450.000000) scale(0.100000,-0.100000)"
fill="#000000" stroke="none">
<path d="M1760 3723 c-195 -14 -358 -28 -362 -32 -4 -4 -5 -30 -1 -59 l6 -52
76 0 c42 0 158 5 257 11 130 8 225 8 337 0 279 -19 1500 -110 1565 -116 58 -6
62 -5 62 14 0 12 -5 21 -11 21 -6 0 -329 54 -719 120 -508 86 -728 120 -781
119 -41 -1 -234 -13 -429 -26z"/>
<path d="M1810 3560 c-49 -15 -136 -23 -355 -35 -323 -17 -604 -38 -830 -60
-205 -21 -214 -23 -220 -49 -3 -11 1 -99 8 -193 7 -95 9 -173 5 -173 -5 0 -8
-18 -8 -40 0 -23 -5 -40 -11 -40 -15 0 -6 -109 9 -119 12 -7 20 -83 73 -701
12 -135 26 -248 31 -251 13 -8 17 -179 4 -171 -6 3 -6 -1 1 -9 7 -9 46 -26 88
-39 41 -13 81 -31 89 -39 20 -23 28 -141 10 -148 -7 -3 -46 5 -85 17 -51 15
-75 18 -82 11 -19 -19 14 -40 119 -75 156 -54 148 -52 140 -22 -3 14 -2 26 3
26 13 0 363 -119 370 -125 3 -3 8 -64 12 -136 4 -72 9 -132 11 -133 1 -2 151
-58 331 -125 371 -138 408 -146 540 -117 63 14 103 33 219 103 157 94 283 177
293 192 3 6 21 4 47 -5 109 -38 194 8 260 141 14 28 28 63 32 78 6 26 9 28 39
21 74 -19 82 -15 385 175 160 101 292 187 292 192 0 5 -11 4 -25 -3 -13 -6
-22 -14 -20 -18 2 -4 -1 -7 -8 -7 -7 0 -124 -66 -260 -147 -136 -81 -255 -149
-265 -152 -9 -4 99 64 241 150 412 249 467 280 479 268 6 -6 6 -12 -1 -16 -19
-12 -12 -26 13 -26 37 0 84 46 103 101 13 37 23 49 38 49 22 0 136 82 171 122
15 18 19 30 13 46 -10 27 -10 27 -60 1 -61 -31 -58 -16 3 18 l53 30 49 620
c26 341 45 629 42 641 -8 23 -6 23 -356 42 -102 6 -349 24 -550 40 -929 77
-1090 91 -1165 100 -121 15 -241 11 -315 -10z m-906 -253 c11 -8 19 -31 22
-62 9 -83 7 -99 -16 -117 -22 -18 -75 -25 -83 -10 -3 4 -8 51 -12 105 l-7 97
39 0 c22 0 47 -6 57 -13z m124 -47 c3 -69 10 -102 21 -96 4 3 6 39 3 81 -5 75
-5 75 21 75 24 0 26 -3 32 -73 9 -97 -8 -137 -59 -137 -18 0 -39 7 -46 15 -13
16 -32 173 -23 188 3 5 15 7 26 5 19 -3 22 -10 25 -58z m230 52 c7 -5 16 -22
21 -39 7 -26 6 -33 -7 -38 -16 -6 -16 -7 1 -16 28 -16 17 -89 -17 -111 -36
-24 -96 16 -96 64 0 15 5 28 10 28 7 0 7 6 0 19 -26 49 -4 101 43 101 18 0 38
-4 45 -8z m418 -1952 c54 -16 122 -32 149 -35 103 -12 95 -3 95 -110 l0 -95
-55 0 c-61 0 -296 70 -327 98 -14 12 -18 31 -18 87 0 39 3 75 7 78 12 13 50 7
149 -23z m552 -25 c2 -9 0 -15 -6 -12 -5 4 -21 -7 -36 -22 -25 -26 -28 -35
-24 -84 l3 -56 -40 -11 c-67 -18 -147 -30 -156 -24 -5 3 -9 45 -9 94 l0 88 61
7 c34 4 89 15 123 25 70 20 80 20 84 -5z m312 -70 c0 -2 -18 -14 -40 -25 -22
-11 -40 -18 -40 -15 0 2 17 13 38 24 42 23 42 23 42 16z m-1145 -69 c88 -30
212 -73 275 -95 171 -60 285 -72 445 -46 23 4 16 -2 -26 -22 -54 -27 -55 -29
-58 -73 -2 -25 -5 -49 -8 -54 -13 -20 -82 -38 -157 -41 l-81 -3 -283 105
c-199 74 -286 111 -293 125 -13 25 -24 121 -16 142 9 24 28 20 202 -38z m1015
-1 c0 -2 -13 -11 -30 -20 -38 -19 -40 -11 -2 9 31 17 32 18 32 11z"/>
<path d="M865 3180 c3 -5 11 -10 16 -10 6 0 7 5 4 10 -3 6 -11 10 -16 10 -6 0
-7 -4 -4 -10z"/>
<path d="M1210 3261 c0 -6 5 -13 10 -16 6 -3 10 1 10 9 0 9 -4 16 -10 16 -5 0
-10 -4 -10 -9z"/>
<path d="M1206 3175 c4 -8 12 -15 20 -15 19 0 18 16 -2 24 -22 9 -24 8 -18 -9z"/>
<path d="M3697 1763 c-4 -3 -7 -11 -7 -17 0 -6 5 -5 12 2 6 6 9 14 7 17 -3 3
-9 2 -12 -2z"/>
<path d="M3654 1736 c-10 -8 -16 -17 -13 -20 3 -3 14 1 25 8 10 8 16 17 13 20
-3 3 -14 -1 -25 -8z"/>
<path d="M650 1264 c65 -30 160 -64 160 -56 0 4 -37 20 -83 36 -101 36 -122
41 -77 20z"/>
</g>
</svg>
